<?xml version="1.0" encoding="UTF-8" standalone="no"?>
<!-- Created with Inkscape (http://www.inkscape.org/) -->

<svg
   xmlns:dc="http://purl.org/dc/elements/1.1/"
   xmlns:cc="http://creativecommons.org/ns#"
   xmlns:rdf="http://www.w3.org/1999/02/22-rdf-syntax-ns#"
   xmlns:svg="http://www.w3.org/2000/svg"
   xmlns="http://www.w3.org/2000/svg"
   xmlns:sodipodi="http://sodipodi.sourceforge.net/DTD/sodipodi-0.dtd"
   xmlns:inkscape="http://www.inkscape.org/namespaces/inkscape"
   width="744.09448819"
   height="1052.3622047"
   id="svg2"
   version="1.1"
   inkscape:version="0.48.5 r10040"
   sodipodi:docname="condom.svg"
   inkscape:export-filename="C:\Users\Jonas\Dropbox\Processing\Processing Week 1\graphics\condom.png"
   inkscape:export-xdpi="90"
   inkscape:export-ydpi="90">
  <defs
     id="defs4" />
  <sodipodi:namedview
     id="base"
     pagecolor="#ffffff"
     bordercolor="#666666"
     borderopacity="1.0"
     inkscape:pageopacity="0.0"
     inkscape:pageshadow="2"
     inkscape:zoom="1.0396203"
     inkscape:cx="360.21906"
     inkscape:cy="889.48183"
     inkscape:document-units="px"
     inkscape:current-layer="layer2"
     showgrid="false"
     inkscape:window-width="1366"
     inkscape:window-height="716"
     inkscape:window-x="-8"
     inkscape:window-y="-8"
     inkscape:window-maximized="1" />
  <metadata
     id="metadata7">
    <rdf:RDF>
      <cc:Work
         rdf:about="">
        <dc:format>image/svg+xml</dc:format>
        <dc:type
           rdf:resource="http://purl.org/dc/dcmitype/StillImage" />
        <dc:title></dc:title>
      </cc:Work>
    </rdf:RDF>
  </metadata>
  <g
     inkscape:label="Layer 1"
     inkscape:groupmode="layer"
     id="layer1"
     sodipodi:insensitive="true"
     style="display:none">
    <path
       style="fill:none;stroke:#000000;stroke-width:1px;stroke-linecap:butt;stroke-linejoin:miter;stroke-opacity:1"
       d="m 312,264.36218 c 3,0 6,0 9,0 0.33333,0 0.68377,0.10541 1,0 0.70711,-0.2357 1.29289,-0.7643 2,-1 0.59013,-0.19671 4.44127,0 5,0 1.19561,0 5.34734,0.21756 6,0 0.70711,-0.2357 1.2769,-0.81922 2,-1 0.97014,-0.24253 2,0 3,0 2.66667,0 5.33333,0 8,0 0.80504,0 3.37235,0.20922 4,0 0.70711,-0.2357 1.29289,-0.7643 2,-1 0.5642,-0.18806 2.34289,0 3,0 2,0 4,0 6,0 11,0 22,0 33,0 5.33333,0 10.66667,0 16,0 0.45239,0 5.7335,0.13325 6,0 0.42164,-0.21082 0.57836,-0.78918 1,-1 0.29814,-0.14907 0.7643,0.2357 1,0 0.2357,-0.2357 -0.2357,-0.7643 0,-1 0.4714,-0.4714 1.5286,0.47141 2,0 0.2357,-0.2357 -0.2357,-0.7643 0,-1 0.2357,-0.2357 0.7643,0.2357 1,0 0.4714,-0.4714 -0.29814,-1.40371 0,-2 0.21082,-0.42163 0.78918,-0.57836 1,-1 0.0683,-0.13657 0.0683,-5.86342 0,-6 -1.10553,-2.21105 -0.62064,-0.31032 -2,-1 -0.42164,-0.21082 -0.57836,-0.78918 -1,-1 -0.59628,-0.29814 -1.40372,0.29815 -2,0 -0.84327,-0.42163 -1.15673,-1.57836 -2,-2 -0.29814,-0.14907 -0.70186,0.14907 -1,0 -0.42164,-0.21082 -0.57836,-0.78918 -1,-1 -0.59628,-0.29814 -1.40372,0.29815 -2,0 -0.42164,-0.21082 -0.57836,-0.78918 -1,-1 -0.29814,-0.14907 -0.70186,0.14907 -1,0 -0.42164,-0.21082 -0.57836,-0.78918 -1,-1 -0.29814,-0.14907 -0.7643,0.2357 -1,0 -0.2357,-0.2357 0.2357,-0.7643 0,-1 -0.0322,-0.0322 -2.75747,0 -3,0 -2.34518,0 0.4714,0.2357 -2,-1 -0.63432,-0.31716 -4.35038,0.32481 -5,0 -0.42164,-0.21082 -0.57836,-0.78918 -1,-1 -0.59628,-0.29814 -1.40372,0.29815 -2,0 -0.42164,-0.21082 -0.57836,-0.78918 -1,-1 -0.59628,-0.29814 -1.40372,0.29815 -2,0 -0.42164,-0.21082 -0.57836,-0.78918 -1,-1 -0.29814,-0.14907 -0.7643,0.2357 -1,0 -0.2357,-0.2357 0.2357,-0.7643 0,-1 -0.2357,-0.2357 -0.70186,0.14907 -1,0 -0.42164,-0.21082 -0.57836,-0.78918 -1,-1 -0.29814,-0.14907 -0.70186,0.14907 -1,0 -0.42164,-0.21082 -0.57836,-0.78918 -1,-1 -0.29814,-0.14907 -0.7643,0.2357 -1,0 -0.2357,-0.2357 0.2357,-0.7643 0,-1 -0.2357,-0.2357 -0.7643,0.2357 -1,0 -0.2357,-0.2357 0.2357,-0.7643 0,-1 -0.2357,-0.2357 -0.70186,0.14907 -1,0 -0.42164,-0.21082 -0.66667,-0.66666 -1,-1 -0.33333,-0.33333 -0.78918,-0.57836 -1,-1 -0.29814,-0.59628 0.29814,-1.40371 0,-2 -0.21082,-0.42163 -0.78918,-0.57836 -1,-1 -0.15217,-0.30433 0,-2.54964 0,-3 0,-2.33333 0,-4.66666 0,-7 0,-3.33333 0,-6.66666 0,-10 0,-0.23763 0.11207,-3.77587 0,-4 -0.21082,-0.42163 -0.78918,-0.57836 -1,-1 -0.27124,-0.54248 0.27362,-3.72638 0,-4 -0.2357,-0.2357 -0.85093,0.29815 -1,0 -0.29036,-0.58071 0.29474,-5.41052 0,-6 -0.21082,-0.42163 -0.78918,-0.57836 -1,-1 -0.34537,-0.69073 0.35102,-4.64898 0,-5 -0.2357,-0.2357 -0.7643,0.2357 -1,0 -0.2357,-0.2357 0.14907,-0.70185 0,-1 -0.21082,-0.42163 -0.78918,-0.57836 -1,-1 -0.29814,-0.59628 0.4714,-1.52859 0,-2 -0.2357,-0.2357 -0.7643,0.2357 -1,0 -0.2357,-0.2357 0.2357,-0.7643 0,-1 -0.2357,-0.2357 -0.70186,0.14907 -1,0 -0.42164,-0.21082 -0.57836,-0.78918 -1,-1 -0.29814,-0.14907 -0.7643,0.2357 -1,0 -0.2357,-0.2357 0.29814,-0.85093 0,-1 -0.59628,-0.29814 -1.36754,0.21082 -2,0 -2.17851,0.37378 -0.33333,-1.66666 -1,-2 -0.59628,-0.29814 -1.36754,0.21082 -2,0 -0.44721,-0.14907 -0.57836,-0.78918 -1,-1 -0.29814,-0.14907 -0.7643,0.2357 -1,0 -0.2357,-0.2357 0.2357,-0.7643 0,-1 -0.20444,-0.20443 -2.60351,0.19825 -3,0 -0.42164,-0.21082 -0.57836,-0.78918 -1,-1 -0.29814,-0.14907 -0.7643,0.2357 -1,0 -0.2357,-0.2357 0,-0.66666 0,-1 0,-2.33333 0,-4.66666 0,-7 0,-2.66666 0,-5.33333 0,-8 0,-0.33333 0,-0.66666 0,-1 0,-0.33333 0.2357,-0.7643 0,-1 -0.2357,-0.2357 -0.7643,0.2357 -1,0 -0.2357,-0.2357 0.14907,-0.70185 0,-1 -0.21082,-0.42163 -0.78918,-0.57836 -1,-1 -0.14907,-0.29814 0.14907,-0.70185 0,-1 -2.08088,-4.16176 0.069,1.06904 -2,-1 -0.2357,-0.2357 0.2357,-0.7643 0,-1 -0.2357,-0.2357 -0.7643,0.2357 -1,0 -0.2357,-0.2357 0.2357,-0.7643 0,-1 -0.35102,-0.35102 -4.30927,0.34537 -5,0 -0.42164,-0.21082 -0.57836,-0.78918 -1,-1 -0.14867,-0.0743 -3.78042,-0.0732 -4,0 -0.70711,0.2357 -1.37983,0.58655 -2,1 -0.42386,0.28258 -2.79312,2.58625 -3,3 -0.15217,0.30434 0,2.54964 0,3 0,2.33334 0,4.66667 0,7 0,1.66667 0,3.33334 0,5 0,0.66667 0,2.66667 0,2 0,-5.49473 0.18223,1.63554 0,2 -0.21082,0.42164 -0.78918,0.57837 -1,1 -0.14907,0.29815 0.14907,0.70186 0,1 -0.21082,0.42164 -0.78918,0.57837 -1,1 -0.14907,0.29815 0.2357,0.7643 0,1 -0.2357,0.2357 -0.7643,-0.2357 -1,0 -0.2357,0.2357 0.2357,0.7643 0,1 -0.0322,0.0322 -2.75747,0 -3,0 -0.33333,0 -0.66667,0 -1,0 -0.33333,0 -0.7643,-0.2357 -1,0 -0.2357,0.2357 0,0.66667 0,1 -0.33333,0.66667 -0.37983,1.58655 -1,2 -0.5547,0.3698 -1.40372,-0.29814 -2,0 -0.59628,0.29815 0.4714,1.5286 0,2 -0.2357,0.2357 -0.7643,-0.2357 -1,0 -3.68874,3.68875 2.39473,0.40351 -3,4 -0.27735,0.1849 -0.7643,-0.2357 -1,0 -9.5e-4,9.6e-4 0.002,2.99547 0,3 -0.14907,0.44722 -0.73851,0.60777 -1,1 -0.41345,0.62018 -0.7643,1.2929 -1,2 -0.18807,0.5642 0,2.34289 0,3 0,2.66667 0,5.33334 0,8 0,11 0,22 0,33 0,0.3284 0.0993,2.85101 0,3 -0.52298,0.78447 -1.47702,1.21554 -2,2 -1.03452,1.55178 1.69873,0.65064 -1,2 -0.61941,0.30971 -3.70412,-0.29588 -4,0 -0.2357,0.2357 0.2357,0.7643 0,1 -0.0453,0.0453 -4.5285,0 -5,0 -2.33333,0 -4.66667,0 -7,0 -0.33333,0 -0.66667,0 -1,0 -0.33333,0 -1,0.33334 -1,0 0,-0.33333 1.14907,-0.29814 1,0 -0.42164,0.84328 -1.57836,1.15673 -2,2 -0.44721,0.89443 0,2 0,3 0,0.33334 0.33333,1 0,1 -0.33333,0 0,-1.33333 0,-1 0,0.66667 0,1.33334 0,2 0,0.45036 0.15217,2.69567 0,3 -2.2883,4.57661 0.41447,-4.24341 -2,3 -0.10541,0.31623 0.2357,0.7643 0,1 -0.2357,0.2357 -0.7643,-0.2357 -1,0 -0.0322,0.0322 0,2.75748 0,3 0,0.33334 0,0.66667 0,1 0,0.33334 -0.2357,0.7643 0,1 0.4714,0.47141 1.40372,-0.29814 2,0 0.42164,0.21082 0.57836,0.78918 1,1 0.26294,0.13147 3.47708,0 4,0 2.66667,0 5.33333,0 8,0 z"
       id="path2985"
       inkscape:connector-curvature="0" />
  </g>
  <g
     inkscape:groupmode="layer"
     id="layer2"
     inkscape:label="condom">
    <path
       style="fill:#00f2f2;fill-opacity:1;stroke:none"
       d="m 297.38806,263.18308 -10.07463,-17.91045 13.43283,-0.37313 z"
       id="path2988"
       inkscape:connector-curvature="0" />
    <path
       style="fill:#00f2f2;fill-opacity:1;stroke:none"
       d="m 309.00341,255.12455 c 0,0 17.91045,-7.46269 17.91045,-8.95523 0,-1.49253 -26.86567,-1.1194 -26.86567,-1.1194 z"
       id="path3760"
       inkscape:connector-curvature="0" />
    <path
       style="fill:#0089f2;fill-opacity:1;stroke:none"
       d="m 297.38806,262.83404 19.26114,-0.42553 -16.27607,-17.48492 z"
       id="path3758"
       inkscape:connector-curvature="0"
       sodipodi:nodetypes="cccc" />
    <path
       style="fill:#0089f2;fill-opacity:1;stroke:none"
       d="m 326.70157,245.90494 1.91972,8.90052 -9.94764,3.14136 z"
       id="path3764"
       inkscape:connector-curvature="0" />
    <path
       style="fill:#008f86;stroke:none;stroke-width:1px;stroke-linecap:butt;stroke-linejoin:miter;stroke-opacity:1;fill-opacity:1"
       d="m 316.23037,262.48435 c 10.64572,-16.57941 10.64572,-16.57941 10.64572,-16.57941 l -17.62653,8.90052 z"
       id="path3762"
       inkscape:connector-curvature="0" />
    <path
       style="fill:#00f2f2;stroke:none;stroke-width:1px;stroke-linecap:butt;stroke-linejoin:miter;stroke-opacity:1;fill-opacity:1"
       d="m 319.37173,257.59778 14.31064,4.71205 -18.49912,0.17452 z"
       id="path3766"
       inkscape:connector-curvature="0" />
    <path
       style="fill:#008f86;fill-opacity:1;stroke:none"
       d="m 318.84817,257.42326 22.33857,-6.45724 -8.02793,11.34381 z"
       id="path3768"
       inkscape:connector-curvature="0"
       sodipodi:nodetypes="cccc" />
    <path
       style="fill:#0089f2;fill-opacity:1;stroke:none"
       d="m 340.8377,250.96602 15.53228,11.16929 -23.90925,0 z"
       id="path3772"
       inkscape:connector-curvature="0"
       sodipodi:nodetypes="cccc" />
    <path
       style="fill:#00f2f2;fill-opacity:1;stroke:none"
       d="m 326.17801,245.90494 26.00349,2.79232 -23.90925,6.1082 z"
       id="path3770"
       inkscape:connector-curvature="0"
       sodipodi:nodetypes="cccc" />
    <path
       style="fill:#0089f2;stroke:none;stroke-width:1px;stroke-linecap:butt;stroke-linejoin:miter;stroke-opacity:1;fill-opacity:1"
       d="m 318.84817,245.03234 43.10645,-0.17452 -11.51832,3.83944 z"
       id="path3776"
       inkscape:connector-curvature="0" />
    <path
       style="fill:#008f86;fill-opacity:1;stroke:none"
       d="m 361.7801,244.50878 -8.20244,16.05585 -13.43804,-9.07505 z"
       id="path3774"
       inkscape:connector-curvature="0"
       sodipodi:nodetypes="cccc" />
    <path
       style="fill:#00f2f2;fill-opacity:1;stroke:none"
       d="m 362.10831,244.24667 -10.07463,17.91045 13.43283,0.37313 z"
       id="path2988-1"
       inkscape:connector-curvature="0" />
    <path
       style="fill:#00f2f2;fill-opacity:1;stroke:none"
       d="m 373.72366,252.3052 c 0,0 17.91045,7.46269 17.91045,8.95523 0,1.49253 -26.86567,1.1194 -26.86567,1.1194 z"
       id="path3760-7"
       inkscape:connector-curvature="0" />
    <path
       style="fill:#0089f2;fill-opacity:1;stroke:none"
       d="m 362.10831,244.59571 19.40298,0 -16.41791,17.91045 z"
       id="path3758-4"
       inkscape:connector-curvature="0" />
    <path
       style="fill:#0089f2;fill-opacity:1;stroke:none"
       d="m 391.42182,261.52481 1.91972,-8.90052 -9.94764,-3.14136 z"
       id="path3764-0"
       inkscape:connector-curvature="0" />
    <path
       style="fill:#008f86;fill-opacity:1;stroke:none"
       d="m 380.95062,244.9454 c 10.64572,16.57941 10.64572,16.57941 10.64572,16.57941 l -17.62653,-8.90052 z"
       id="path3762-9"
       inkscape:connector-curvature="0" />
    <path
       style="fill:#00f2f2;fill-opacity:1;stroke:none"
       d="m 384.09198,249.83197 14.31064,-4.71205 -18.49912,-0.17452 z"
       id="path3766-4"
       inkscape:connector-curvature="0" />
    <path
       style="fill:#008f86;fill-opacity:1;stroke:none"
       d="m 383.56842,250.00649 22.33857,6.45724 -8.02793,-11.34381 z"
       id="path3768-8"
       inkscape:connector-curvature="0"
       sodipodi:nodetypes="cccc" />
    <path
       style="fill:#0089f2;fill-opacity:1;stroke:none"
       d="m 405.55795,256.46373 12.91448,-9.77313 -21.29145,-1.39616 z"
       id="path3772-8"
       inkscape:connector-curvature="0"
       sodipodi:nodetypes="cccc" />
    <path
       style="fill:#00f2f2;fill-opacity:1;stroke:none"
       d="m 390.89826,261.52481 26.00349,-2.79232 -23.90925,-6.1082 z"
       id="path3770-2"
       inkscape:connector-curvature="0"
       sodipodi:nodetypes="cccc" />
    <path
       style="fill:#0089f2;fill-opacity:1;stroke:none"
       d="m 383.28473,262.11372 43.39014,0.45821 -11.51832,-3.83944 z"
       id="path3776-4"
       inkscape:connector-curvature="0"
       sodipodi:nodetypes="cccc" />
    <path
       style="fill:#008f86;fill-opacity:1;stroke:none"
       d="m 426.50035,262.92097 -8.20244,-16.05585 -13.43804,9.07505 z"
       id="path3774-5"
       inkscape:connector-curvature="0"
       sodipodi:nodetypes="cccc" />
    <path
       style="fill:#008f86;fill-opacity:1;stroke:none"
       d="m 323.29578,234.02699 13.04965,-11.63121 0,11.63121 z"
       id="path3826-5-3"
       inkscape:connector-curvature="0" />
    <path
       style="fill:#008f86;fill-opacity:1;stroke:none"
       d="m 336.2745,234.09792 13.04965,-11.63121 0,11.63121 z"
       id="path3826-7-2"
       inkscape:connector-curvature="0" />
    <path
       style="fill:#008f86;fill-opacity:1;stroke:none"
       d="m 349.1823,233.95607 13.04965,-11.63121 0,11.63121 z"
       id="path3826-5-1-2"
       inkscape:connector-curvature="0" />
    <path
       style="fill:#008f86;fill-opacity:1;stroke:none"
       d="m 362.09011,233.81424 13.04965,-11.63121 0,11.63121 z"
       id="path3826-7-1-1"
       inkscape:connector-curvature="0" />
    <path
       style="fill:#008f86;fill-opacity:1;stroke:none"
       d="m 374.99791,233.95608 13.04965,-11.63121 0,11.63121 z"
       id="path3826-5-1-5-6"
       inkscape:connector-curvature="0" />
    <path
       style="fill:#0089f2;fill-opacity:1;stroke:none"
       d="m 387.90988,222.61228 -13.04965,11.63121 0,-11.63121 z"
       id="path3826-5-7-8"
       inkscape:connector-curvature="0" />
    <path
       style="fill:#0089f2;fill-opacity:1;stroke:none"
       d="m 374.93116,222.68319 -13.04965,11.63121 0,-11.63121 z"
       id="path3826-7-6-5"
       inkscape:connector-curvature="0" />
    <path
       style="fill:#0089f2;fill-opacity:1;stroke:none"
       d="m 362.02336,222.82504 -13.04965,11.63121 0,-11.63121 z"
       id="path3826-5-1-1-7"
       inkscape:connector-curvature="0" />
    <path
       style="fill:#0089f2;fill-opacity:1;stroke:none"
       d="m 349.11555,222.96687 -13.04965,11.63121 0,-11.63121 z"
       id="path3826-7-1-4-6"
       inkscape:connector-curvature="0" />
    <path
       style="fill:#0089f2;fill-opacity:1;stroke:none"
       d="m 336.20775,222.68319 -13.04965,11.63121 0,-11.63121 z"
       id="path3826-5-1-5-2-1"
       inkscape:connector-curvature="0" />
    <path
       style="fill:#008f86;fill-opacity:1;stroke:none"
       d="m 310.21276,245.12814 13.04965,-11.63121 0,11.63121 z"
       id="path3826"
       inkscape:connector-curvature="0" />
    <path
       style="fill:#00f2f2;fill-opacity:1;stroke:none"
       d="m 400.85106,245.83736 -13.04965,-12.34043 0,11.63121 z"
       id="path3826-8"
       inkscape:connector-curvature="0"
       sodipodi:nodetypes="cccc" />
    <path
       style="fill:#008f86;fill-opacity:1;stroke:none"
       d="m 323.12056,244.98629 13.04965,-11.63121 0,11.63121 z"
       id="path3826-5"
       inkscape:connector-curvature="0" />
    <path
       style="fill:#008f86;fill-opacity:1;stroke:none"
       d="m 336.09928,245.05722 13.04965,-11.63121 0,11.63121 z"
       id="path3826-7"
       inkscape:connector-curvature="0" />
    <path
       style="fill:#008f86;fill-opacity:1;stroke:none"
       d="m 349.00708,244.91537 13.04965,-11.63121 0,11.63121 z"
       id="path3826-5-1"
       inkscape:connector-curvature="0" />
    <path
       style="fill:#008f86;fill-opacity:1;stroke:none"
       d="m 361.91489,244.77354 13.04965,-11.63121 0,11.63121 z"
       id="path3826-7-1"
       inkscape:connector-curvature="0" />
    <path
       style="fill:#008f86;fill-opacity:1;stroke:none"
       d="m 374.82269,245.05722 13.04965,-11.63121 0,11.63121 z"
       id="path3826-5-1-5"
       inkscape:connector-curvature="0" />
    <path
       style="fill:#00f2f2;fill-opacity:1;stroke:none"
       d="m 387.73466,233.71342 -13.04965,11.63121 0,-11.63121 z"
       id="path3826-5-7"
       inkscape:connector-curvature="0" />
    <path
       style="fill:#00f2f2;fill-opacity:1;stroke:none"
       d="m 374.75594,233.64249 -13.04965,11.63121 0,-11.63121 z"
       id="path3826-7-6"
       inkscape:connector-curvature="0" />
    <path
       style="fill:#00f2f2;fill-opacity:1;stroke:none"
       d="m 361.84814,233.78434 -13.04965,11.63121 0,-11.63121 z"
       id="path3826-5-1-1"
       inkscape:connector-curvature="0" />
    <path
       style="fill:#00f2f2;fill-opacity:1;stroke:none"
       d="m 348.94033,233.92617 -13.04965,11.63121 0,-11.63121 z"
       id="path3826-7-1-4"
       inkscape:connector-curvature="0" />
    <path
       style="fill:#00f2f2;fill-opacity:1;stroke:none"
       d="m 336.03253,233.64249 -13.04965,11.63121 0,-11.63121 z"
       id="path3826-5-1-5-2"
       inkscape:connector-curvature="0" />
    <g
       id="g3202">
      <path
         inkscape:connector-curvature="0"
         id="path3826-5-3-9"
         d="m 323.52524,211.95159 13.04965,-11.63121 0,11.63121 z"
         style="fill:#008f86;fill-opacity:1;stroke:none" />
      <path
         inkscape:connector-curvature="0"
         id="path3826-7-2-2"
         d="m 336.50396,212.02252 13.04965,-11.63121 0,11.63121 z"
         style="fill:#008f86;fill-opacity:1;stroke:none" />
      <path
         inkscape:connector-curvature="0"
         id="path3826-5-1-2-7"
         d="m 349.41176,211.88067 13.04965,-11.63121 0,11.63121 z"
         style="fill:#008f86;fill-opacity:1;stroke:none" />
      <path
         inkscape:connector-curvature="0"
         id="path3826-7-1-1-9"
         d="m 362.31957,211.73884 13.04965,-11.63121 0,11.63121 z"
         style="fill:#008f86;fill-opacity:1;stroke:none" />
      <path
         inkscape:connector-curvature="0"
         id="path3826-5-1-5-6-5"
         d="m 375.22737,211.88068 13.04965,-11.63121 0,11.63121 z"
         style="fill:#008f86;fill-opacity:1;stroke:none" />
      <path
         inkscape:connector-curvature="0"
         id="path3826-5-7-8-4"
         d="m 388.13934,200.53688 -13.04965,11.63121 0,-11.63121 z"
         style="fill:#0089f2;fill-opacity:1;stroke:none" />
      <path
         inkscape:connector-curvature="0"
         id="path3826-7-6-5-3"
         d="m 375.16062,200.60779 -13.04965,11.63121 0,-11.63121 z"
         style="fill:#0089f2;fill-opacity:1;stroke:none" />
      <path
         inkscape:connector-curvature="0"
         id="path3826-5-1-1-7-1"
         d="m 362.25282,200.74964 -13.04965,11.63121 0,-11.63121 z"
         style="fill:#0089f2;fill-opacity:1;stroke:none" />
      <path
         inkscape:connector-curvature="0"
         id="path3826-7-1-4-6-2"
         d="m 349.34501,200.89147 -13.04965,11.63121 0,-11.63121 z"
         style="fill:#0089f2;fill-opacity:1;stroke:none" />
      <path
         inkscape:connector-curvature="0"
         id="path3826-5-1-5-2-1-3"
         d="m 336.43721,200.60779 -13.04965,11.63121 0,-11.63121 z"
         style="fill:#0089f2;fill-opacity:1;stroke:none" />
      <path
         inkscape:connector-curvature="0"
         id="path3826-5-34"
         d="m 323.35002,223.05274 13.04965,-11.63121 0,11.63121 z"
         style="fill:#008f86;fill-opacity:1;stroke:none" />
      <path
         inkscape:connector-curvature="0"
         id="path3826-7-11"
         d="m 336.32874,223.12367 13.04965,-11.63121 0,11.63121 z"
         style="fill:#008f86;fill-opacity:1;stroke:none" />
      <path
         inkscape:connector-curvature="0"
         id="path3826-5-1-3"
         d="m 349.23654,222.98182 13.04965,-11.63121 0,11.63121 z"
         style="fill:#008f86;fill-opacity:1;stroke:none" />
      <path
         inkscape:connector-curvature="0"
         id="path3826-7-1-8"
         d="m 362.14435,222.83999 13.04965,-11.63121 0,11.63121 z"
         style="fill:#008f86;fill-opacity:1;stroke:none" />
      <path
         inkscape:connector-curvature="0"
         id="path3826-5-1-5-7"
         d="m 375.05215,223.12367 13.04965,-11.63121 0,11.63121 z"
         style="fill:#008f86;fill-opacity:1;stroke:none" />
      <path
         inkscape:connector-curvature="0"
         id="path3826-5-7-4"
         d="m 387.96412,211.77987 -13.04965,11.63121 0,-11.63121 z"
         style="fill:#00f2f2;fill-opacity:1;stroke:none" />
      <path
         inkscape:connector-curvature="0"
         id="path3826-7-6-2"
         d="m 374.9854,211.70894 -13.04965,11.63121 0,-11.63121 z"
         style="fill:#00f2f2;fill-opacity:1;stroke:none" />
      <path
         inkscape:connector-curvature="0"
         id="path3826-5-1-1-77"
         d="m 362.0776,211.85079 -13.04965,11.63121 0,-11.63121 z"
         style="fill:#00f2f2;fill-opacity:1;stroke:none" />
      <path
         inkscape:connector-curvature="0"
         id="path3826-7-1-4-9"
         d="m 349.16979,211.99262 -13.04965,11.63121 0,-11.63121 z"
         style="fill:#00f2f2;fill-opacity:1;stroke:none" />
      <path
         inkscape:connector-curvature="0"
         id="path3826-5-1-5-2-3"
         d="m 336.26199,211.70894 -13.04965,11.63121 0,-11.63121 z"
         style="fill:#00f2f2;fill-opacity:1;stroke:none" />
    </g>
    <path
       style="fill:#008f86;fill-opacity:1;stroke:none"
       d="m 323.72568,189.94804 13.04965,-11.63121 0,11.63121 z"
       id="path3826-5-3-9-4"
       inkscape:connector-curvature="0" />
    <path
       style="fill:#008f86;fill-opacity:1;stroke:none"
       d="m 336.7044,190.01897 13.04965,-11.63121 0,11.63121 z"
       id="path3826-7-2-2-2"
       inkscape:connector-curvature="0" />
    <path
       style="fill:#008f86;fill-opacity:1;stroke:none"
       d="m 349.6122,189.87712 13.04965,-11.63121 0,11.63121 z"
       id="path3826-5-1-2-7-3"
       inkscape:connector-curvature="0" />
    <path
       style="fill:#008f86;fill-opacity:1;stroke:none"
       d="m 362.52001,189.73529 13.04965,-11.63121 0,11.63121 z"
       id="path3826-7-1-1-9-2"
       inkscape:connector-curvature="0" />
    <path
       style="fill:#0089f2;fill-opacity:1;stroke:none"
       d="m 388.33978,190.16454 -13.04965,-11.63121 0,11.63121 z"
       id="path3826-5-7-8-4-1"
       inkscape:connector-curvature="0" />
    <path
       style="fill:#0089f2;fill-opacity:1;stroke:none"
       d="m 375.36106,178.60424 -13.04965,11.63121 0,-11.63121 z"
       id="path3826-7-6-5-3-6"
       inkscape:connector-curvature="0" />
    <path
       style="fill:#0089f2;fill-opacity:1;stroke:none"
       d="m 362.45326,178.74609 -13.04965,11.63121 0,-11.63121 z"
       id="path3826-5-1-1-7-1-8"
       inkscape:connector-curvature="0" />
    <path
       style="fill:#0089f2;fill-opacity:1;stroke:none"
       d="m 349.54545,178.88792 -13.04965,11.63121 0,-11.63121 z"
       id="path3826-7-1-4-6-2-5"
       inkscape:connector-curvature="0" />
    <path
       style="fill:#008f86;fill-opacity:1;stroke:none"
       d="m 323.55046,201.04919 13.04965,-11.63121 0,11.63121 z"
       id="path3826-5-34-6"
       inkscape:connector-curvature="0" />
    <path
       style="fill:#008f86;fill-opacity:1;stroke:none"
       d="m 336.52918,201.12012 13.04965,-11.63121 0,11.63121 z"
       id="path3826-7-11-1"
       inkscape:connector-curvature="0" />
    <path
       style="fill:#008f86;fill-opacity:1;stroke:none"
       d="m 349.43698,200.97827 13.04965,-11.63121 0,11.63121 z"
       id="path3826-5-1-3-8"
       inkscape:connector-curvature="0" />
    <path
       style="fill:#008f86;fill-opacity:1;stroke:none"
       d="m 362.34479,200.83644 13.04965,-11.63121 0,11.63121 z"
       id="path3826-7-1-8-9"
       inkscape:connector-curvature="0" />
    <path
       style="fill:#008f86;fill-opacity:1;stroke:none"
       d="m 375.25259,201.12012 13.04965,-11.63121 0,11.63121 z"
       id="path3826-5-1-5-7-2"
       inkscape:connector-curvature="0" />
    <path
       style="fill:#00f2f2;fill-opacity:1;stroke:none"
       d="m 388.16456,189.77632 -13.04965,11.63121 0,-11.63121 z"
       id="path3826-5-7-4-7"
       inkscape:connector-curvature="0" />
    <path
       style="fill:#00f2f2;fill-opacity:1;stroke:none"
       d="m 375.18584,189.70539 -13.04965,11.63121 0,-11.63121 z"
       id="path3826-7-6-2-9"
       inkscape:connector-curvature="0" />
    <path
       style="fill:#00f2f2;fill-opacity:1;stroke:none"
       d="m 362.27804,189.84724 -13.04965,11.63121 0,-11.63121 z"
       id="path3826-5-1-1-77-5"
       inkscape:connector-curvature="0" />
    <path
       style="fill:#00f2f2;fill-opacity:1;stroke:none"
       d="m 349.37023,189.98907 -13.04965,11.63121 0,-11.63121 z"
       id="path3826-7-1-4-9-4"
       inkscape:connector-curvature="0" />
    <path
       style="fill:#00f2f2;fill-opacity:1;stroke:none"
       d="m 336.46243,189.70539 -13.04965,11.63121 0,-11.63121 z"
       id="path3826-5-1-5-2-3-3"
       inkscape:connector-curvature="0" />
    <path
       style="fill:#008f86;fill-opacity:1;stroke:none"
       d="m 342.23563,178.88276 13.04965,-11.63121 0,11.63121 z"
       id="path3826-5-3-9-4-1"
       inkscape:connector-curvature="0" />
    <path
       style="fill:#008f86;fill-opacity:1;stroke:none"
       d="m 368.26263,178.75706 -13.04965,-11.63121 0,11.63121 z"
       id="path3826-5-3-9-4-1-8"
       inkscape:connector-curvature="0" />
    <path
       style="fill:#00f2f2;fill-opacity:1;stroke:none"
       d="m 355.27918,167.21544 13.04965,11.63121 0,-11.63121 z"
       id="path3826-5-3-9-4-1-7"
       inkscape:connector-curvature="0" />
    <path
       style="fill:#00f2f2;fill-opacity:1;stroke:none"
       d="m 355.23911,167.34114 -13.04965,11.63121 0,-11.63121 z"
       id="path3826-5-3-9-4-1-8-4"
       inkscape:connector-curvature="0" />
    <path
       style="fill:#0089f2;fill-opacity:1;stroke:none"
       d="m 342.31185,167.34219 13.04965,-11.63121 0,11.63121 z"
       id="path3826-5-3-9-4-1-2"
       inkscape:connector-curvature="0" />
    <path
       style="fill:#0089f2;fill-opacity:1;stroke:none"
       d="m 368.33885,167.36893 -13.04965,-11.63121 0,11.63121 z"
       id="path3826-5-3-9-4-1-8-7"
       inkscape:connector-curvature="0" />
    <path
       style="fill:#00f2f2;fill-opacity:1;stroke:none"
       d="m 355.3554,155.82731 13.04965,11.63121 0,-11.63121 z"
       id="path3826-5-3-9-4-1-7-7"
       inkscape:connector-curvature="0" />
    <path
       style="fill:#00f2f2;fill-opacity:1;stroke:none"
       d="m 355.31533,155.80057 -13.04965,11.63121 0,-11.63121 z"
       id="path3826-5-3-9-4-1-8-4-9"
       inkscape:connector-curvature="0" />
    <path
       style="fill:#0089f2;fill-opacity:1;stroke:none"
       d="m 342.25272,155.98764 13.04965,-11.63121 0,11.63121 z"
       id="path3826-5-3-9-4-1-2-3"
       inkscape:connector-curvature="0" />
    <path
       style="fill:#0089f2;fill-opacity:1;stroke:none"
       d="m 368.27972,156.01438 -13.04965,-11.63121 0,11.63121 z"
       id="path3826-5-3-9-4-1-8-7-1"
       inkscape:connector-curvature="0" />
  </g>
</svg>
